<?xml version="1.0" encoding="utf-8"?>
<!-- Generator: Adobe Illustrator 22.0.0, SVG Export Plug-In . SVG Version: 6.00 Build 0)  -->
<svg version="1.1" id="Layer_1" xmlns="http://www.w3.org/2000/svg" xmlns:xlink="http://www.w3.org/1999/xlink" x="0px" y="0px"
	 viewBox="0 0 240 37.4" style="enable-background:new 0 0 240 37.4;" xml:space="preserve">
<style type="text/css">
	.st0{fill:#008EAF;}
	.st1{fill:#0082AB;}
	.st2{fill:#C24530;}
	.st3{fill:#E65038;}
</style>
<g id="TOPdesk">
	<g>
		<g>
			<polygon class="st0" points="46.2,0.4 46.2,6.4 56,6.4 56,37 62.9,37 62.9,6.4 72.8,6.4 72.8,0.4 			"/>
		</g>
		<g>
			<path class="st0" d="M108.8,37h6.9V24.7c0,0,3.3,0,5.7,0c7,0,11.5-6.4,11.5-13.6c0-6.8-4.7-10.6-11.4-10.6h-12.7L108.8,37z
				 M120.3,19.1c-1.7,0-4.6,0-4.6,0V6.4c1.7-0.4,4.9-0.3,6.3-0.2c2.7,0.3,3.9,2,3.9,5.4C125.9,14.9,125.2,19.1,120.3,19.1z"/>
		</g>
		<g>
			<path class="st0" d="M153.1,0.4v10.4c-0.5-0.9-3.5-1.5-6.2-1.5c-8.4,0-12.4,5.2-12.4,14c0,7.4,5.4,13.6,12.5,13.6h8.1h4.9
				c0-2.2,0-36.6,0-36.6L153.1,0.4L153.1,0.4z M153.1,31.3h-5.3c-3.8,0-6.7-3.6-6.7-9.2c0-4.3,2.2-7.4,6.5-7.4c3.7,0,5.6,2,5.6,4.8
				v11.8H153.1z"/>
		</g>
		<g>
			<polygon class="st0" points="227.3,22.1 238.7,9.3 230.5,9.3 220.7,21.1 220.7,0.4 213.8,0.4 213.8,37 220.7,37 220.7,23.4 
				231.7,37 240,37 			"/>
		</g>
		<g>
			<path class="st0" d="M89.5,0C78.9,0,72.8,8.8,72.8,19.4c0,11.1,7.5,18,16,18c10.6,0,16.7-8.2,16.7-19.1C105.5,7.8,98.3,0,89.5,0z
				 M89.4,31.2c-5.9,0-9.4-4.6-9.4-12.8c0-7.7,3.5-12.3,8.9-12.3c6.4,0,9.4,4.9,9.4,13.3C98.3,26.5,94.6,31.2,89.4,31.2z"/>
		</g>
		<path class="st0" d="M195.9,22.4"/>
		<g>
			<g>
				<path class="st0" d="M174.6,26.2h-4.4c0.5,3.4,3.6,5.5,7.5,5.5c2.8,0,6.3-0.7,8.4-2.7v2.2v2.4c-0.3,0.4-2.6,3.8-9.7,3.6
					c-6.7,0-13.2-5.3-13.2-13.5c0-8.9,5.5-14.6,13.1-14.6c5.6,0,10.7,4,10.7,10.4C187.2,24.7,183.5,26.2,174.6,26.2z M175.9,14.9
					c-3.2,0-5.5,2.6-5.6,5.7v0.9h3c6.3,0,7.7-0.7,7.7-2.6C180.9,16.3,178.9,14.9,175.9,14.9z"/>
			</g>
		</g>
		<g>
			<g>
				<path class="st0" d="M199.3,37.4c-4.1,0-7.4-1.9-8.6-3.6v-4.7l0,0c1.4,1.3,5.1,2.5,8.3,2.5c3.3,0,4.9-0.9,4.9-2.9
					c0-1.5-0.9-2.3-5.6-2.9c-5.7-0.8-8.4-3-8.4-7.1c0-5,4.5-9.3,11.4-9.3c3.7,0,6,1.2,7.3,2.6v4.8l0,0c-1.6-1-4.1-1.7-6.7-1.7
					c-4.1,0-5.4,1.2-5.4,3c0,1.3,0.8,1.9,5.4,2.6c5.6,0.9,8.5,3.3,8.5,7.6C210.5,34,206.5,37.4,199.3,37.4z"/>
			</g>
		</g>
	</g>
</g>
<g id="Symbol">
	<path class="st1" d="M207.1,9.7"/>
	<g>
		<g>
			<path class="st2" d="M13.2,18.7L0,5.5l0,0c7.3-7.3,19.1-7.3,26.4,0l0,0L13.2,18.7z"/>
		</g>
		<g>
			<path class="st3" d="M26.4,31.9L26.4,31.9l13.2-13.2L26.4,5.5L13.2,18.7L0,31.9C7.3,39.2,19.1,39.2,26.4,31.9z"/>
		</g>
	</g>
</g>
</svg>
