<svg id="Layer_1" data-name="Layer 1" xmlns="http://www.w3.org/2000/svg" viewBox="0 0 512 512"><defs><style>.cls-1{fill:#c24530;}.cls-2{fill:#fff;}</style></defs><rect class="cls-1" width="512" height="512" rx="64"/><path class="cls-2" d="M233.6,32a22.4,22.4,0,0,0,0,44.8V101a156.84,156.84,0,0,0-71.39,29.58l-17.09-17.09a22.4,22.4,0,0,0-31.67-31.68L81.77,113.45a22.4,22.4,0,0,0,31.68,31.67l17.1,17.11A156.81,156.81,0,0,0,101,233.6H76.8a22.4,22.4,0,1,0-44.8,0v44.8a22.4,22.4,0,1,0,44.8,0H101a156.84,156.84,0,0,0,29.58,71.39l-17.09,17.09a22.4,22.4,0,0,0-31.68,31.67l31.68,31.68a22.4,22.4,0,0,0,31.67-31.68l17.11-17.1A156.81,156.81,0,0,0,233.6,411V435.2a22.4,22.4,0,0,0,0,44.8h44.8a22.4,22.4,0,1,0,0-44.8V411a156.84,156.84,0,0,0,71.39-29.58l17.09,17.09a22.4,22.4,0,0,0,31.67,31.68l31.68-31.68a22.4,22.4,0,0,0-31.68-31.67l-17.1-17.11A156.81,156.81,0,0,0,411,278.4H435.2a22.4,22.4,0,1,0,44.8,0V233.6a22.4,22.4,0,1,0-44.8,0H411a156.84,156.84,0,0,0-29.58-71.39l17.09-17.09a22.4,22.4,0,0,0,31.68-31.67L398.55,81.77a22.4,22.4,0,0,0-31.67,31.68l-17.11,17.1A156.81,156.81,0,0,0,278.4,101V76.8a22.4,22.4,0,1,0,0-44.8Z"/><path class="cls-1" d="M256,144a7.47,7.47,0,0,1,7.47,7.47h0a7.47,7.47,0,0,1-7.47,7.46h0a7.47,7.47,0,0,1-7.47-7.46h0A7.47,7.47,0,0,1,256,144Z"/><path class="cls-1" d="M203.75,159a44.78,44.78,0,1,1-44.8,44.8A44.87,44.87,0,0,1,203.75,159Z"/><path class="cls-1" d="M308.25,173.88a29.88,29.88,0,1,1-29.86,29.87A30,30,0,0,1,308.25,173.88Z"/><path class="cls-1" d="M151.47,248.53a7.47,7.47,0,0,1,7.46,7.47h0a7.47,7.47,0,0,1-7.46,7.47h0A7.47,7.47,0,0,1,144,256h0a7.47,7.47,0,0,1,7.47-7.47Z"/><path class="cls-1" d="M256,248.53a7.48,7.48,0,0,1,7.47,7.47h0a7.48,7.48,0,0,1-7.47,7.47h0a7.48,7.48,0,0,1-7.47-7.47h0a7.48,7.48,0,0,1,7.47-7.47Z"/><path class="cls-1" d="M360.53,248.53A7.47,7.47,0,0,1,368,256h0a7.47,7.47,0,0,1-7.47,7.47h0a7.47,7.47,0,0,1-7.46-7.47h0a7.47,7.47,0,0,1,7.46-7.47Z"/><circle class="cls-1" cx="308.25" cy="308.25" r="44.81"/><path class="cls-1" d="M203.75,278.39a29.87,29.87,0,1,1-29.87,29.86A30,30,0,0,1,203.75,278.39Z"/><path class="cls-1" d="M256,353.07a7.47,7.47,0,0,1,7.47,7.46h0A7.47,7.47,0,0,1,256,368h0a7.47,7.47,0,0,1-7.47-7.47h0a7.47,7.47,0,0,1,7.47-7.46Z"/></svg>