<svg xmlns="http://www.w3.org/2000/svg" xmlns:xlink="http://www.w3.org/1999/xlink" width="64" height="64" viewBox="0 0 64 64">
  <defs>
    <clipPath id="clip-dont_touch_face">
      <rect width="64" height="64"/>
    </clipPath>
  </defs>
  <g id="dont_touch_face" clip-path="url(#clip-dont_touch_face)">
    <g id="noun_Dont_Touch_face_3378094" data-name="noun_Dont Touch face_3378094" transform="translate(-0.001 0)">
      <path id="Path_374" data-name="Path 374" d="M43.239,23.518a1,1,0,1,0-1.94.5l.34,1.365a17.545,17.545,0,0,0-7.26.875,1,1,0,0,0,.375,1.925.97.97,0,0,0,.37-.07,13.694,13.694,0,0,1,4.71-.78.67.67,0,0,0-.085.155.79.79,0,0,0-.055.185.96.96,0,0,0,0,.39.83.83,0,0,0,.055.19.815.815,0,0,0,.095.17,1.17,1.17,0,0,0,.12.155l.155.125a1.105,1.105,0,0,0,.17.09.83.83,0,0,0,.19.055.96.96,0,0,0,.39,0,.79.79,0,0,0,.185-.055,1.155,1.155,0,0,0,.175-.09,1.239,1.239,0,0,0,.15-.125.9.9,0,0,0,.125-.155,1.135,1.135,0,0,0,.095-.17,1.19,1.19,0,0,0,.055-.19.96.96,0,0,0,0-.39,1.129,1.129,0,0,0-.055-.185.67.67,0,0,0-.065-.115c.78.045,1.285.115,1.3.115a1,1,0,0,0,1.11-1.23Z" transform="translate(-16.88 -11.384)"/>
      <path id="Path_375" data-name="Path 375" d="M28.356,19.125a1,1,0,0,0,.445-.1c8-4,12.9-2.78,13-2.76a1,1,0,0,0,.53-1.925c-.225-.065-5.65-1.5-14.414,2.895a1,1,0,0,0,.45,1.895Z" transform="translate(-13.681 -7.031)"/>
      <path id="Path_376" data-name="Path 376" d="M58.367,50.1a31.918,31.918,0,0,0-3.62-40.573,1.08,1.08,0,0,0-.275-.275A31.9,31.9,0,0,0,33.524.04a1.045,1.045,0,0,0-.3-.04l-.165.025H32A32.053,32.053,0,0,0,1.4,22.638a.93.93,0,0,0-.06.21,32,32,0,0,0-.69,15.574.35.35,0,0,0,0,.07,31.928,31.928,0,0,0,8.6,16,1.08,1.08,0,0,0,.275.275,32.358,32.358,0,0,0,4.33,3.59,1.055,1.055,0,0,0,.265.185A31.838,31.838,0,0,0,35.533,63.8h0a1,1,0,0,0,.245-.03A32,32,0,0,0,58.132,50.427,1,1,0,0,0,58.367,50.1Zm-.8-2.425c-.46-.8-1-1.64-1.555-2.455a24.869,24.869,0,0,1-2.095-3.5,14.089,14.089,0,0,1-.8-3.14,8.364,8.364,0,0,0-.89-3,2.935,2.935,0,0,0-2.87-1.295,3.769,3.769,0,0,0-3,2.92,9.334,9.334,0,0,0,.4,7.235c.07.135.13.26.19.385-1.81-1.285-3.57-2.555-4.045-3-.585-.5-3.87-3.165-7-5.595,1.125-2.74,2.335-6.33,2.355-9.1L53.892,11.5a29.923,29.923,0,0,1,3.67,36.153ZM26,48.5c-1.365.82-5.92.46-9.079-.03l10.8-10.774c1.065,1,2.335,2.18,3.685,3.39C29.089,45.357,27.044,47.887,26,48.5ZM3.09,40l1.445.63,9.2,8.22L10.105,52.5A30,30,0,0,1,3.09,40ZM11,24.3c.24,3.66.55,8.439.61,9.7A68.728,68.728,0,0,1,5,38.643l-2.475-1.08a29.858,29.858,0,0,1,.55-13.5Zm2,28.1a7.929,7.929,0,0,0,.055,2.84c-.53-.43-1.04-.885-1.54-1.35ZM27.684,34.9a7.624,7.624,0,0,1-1.11-1.275c-.18-.38-.095-.535-.055-.6a1.845,1.845,0,0,1,1-.615c.3.19.85.58,1.56,1.1Zm-.075-4.53A3.845,3.845,0,0,0,24.814,32a2.5,2.5,0,0,0-.045,2.5,9.385,9.385,0,0,0,1.525,1.815L15.155,47.427l-8.424-7.5c6.885-4.46,6.885-5.08,6.885-5.63s-.46-7.6-.615-10.179l19.129-4.465c.365.44.76.94,1.155,1.47l-7.17,1.695a1.007,1.007,0,0,0,.23,2,.94.94,0,0,0,.23-.03l7.925-1.9a12,12,0,0,1,1.71,3.5L30.5,32.073c-2.335-1.735-2.57-1.72-2.885-1.71Zm6.245-18c.785-1.095.59-7.5.47-10.244a29.888,29.888,0,0,1,18.149,8L37.8,24.783A29.754,29.754,0,0,0,33.319,18a9,9,0,0,1-1-3.265c0-.445.63-1.235,1.045-1.755.2-.24.36-.445.495-.635ZM36,29.4a32.9,32.9,0,0,1-1.735,5.555c-.82-.64-1.535-1.19-2.155-1.665ZM32,2h.32c.17,3.76.15,8.389-.125,9.229-.11.145-.235.3-.37.47a5.281,5.281,0,0,0-1.5,3,9.7,9.7,0,0,0,.725,3.13l-19.234,4.5-8.12-.26A30.048,30.048,0,0,1,32,2ZM15.445,57c-.79-3.7-.95-4.55.97-6.585A42,42,0,0,0,22.709,51a9.158,9.158,0,0,0,4.335-.775,9.049,9.049,0,0,0,2.11-2,4.345,4.345,0,0,0-.5,2.5,7.534,7.534,0,0,0,1.67,3.15,5.15,5.15,0,0,0-.96,2c-.545,2.415,1.1,4.2,2.595,5.5.22.19.5.395.745.6h-.725A29.858,29.858,0,0,1,15.445,57Zm20.339,4.75c-.63-.445-1.775-1.27-2.5-1.895-2-1.75-2.13-2.735-1.95-3.54a3,3,0,0,1,.35-.87A17.829,17.829,0,0,0,35.239,58.5a1,1,0,1,0,1.065-1.69,16.884,16.884,0,0,1-3.82-3.5h0v-.03a8.49,8.49,0,0,1-1.775-2.77,2.9,2.9,0,0,1,.79-2.215c1.5,1.435,5.1,4.8,6.145,5.715a1,1,0,0,0,1.315-1.5c-1.275-1.115-6.72-6.26-6.775-6.31h0a1.656,1.656,0,0,1-.5-1.5,2.7,2.7,0,0,1,1.5-1.5.88.88,0,0,1,.765.18c3.3,2.89,6.62,5.7,8.29,7.1a1,1,0,1,0,1.285-1.53c-4.72-4-10.964-9.389-14.424-12.649l1.565-1.565c3.9,2.97,9.869,7.695,10.864,8.594,1.125,1,7.455,5.395,8.175,5.89a1,1,0,0,0,1.135-1.65l-1.465-1A6.755,6.755,0,0,0,48.5,43.5a7.426,7.426,0,0,1-.255-5.72c.275-.89.765-1.445,1.35-1.5a.945.945,0,0,1,.915.38,7.065,7.065,0,0,1,.61,2.26,15.9,15.9,0,0,0,.955,3.58,25.888,25.888,0,0,0,2.27,3.845,28.934,28.934,0,0,1,1.96,3.23A30.033,30.033,0,0,1,35.783,61.751Z" transform="translate(0 0)"/>
    </g>
  </g>
</svg>
