<svg xmlns="http://www.w3.org/2000/svg" xmlns:xlink="http://www.w3.org/1999/xlink" width="64" height="64" viewBox="0 0 64 64">
  <defs>
    <clipPath id="clip-elbow">
      <rect width="64" height="64"/>
    </clipPath>
  </defs>
  <g id="elbow" clip-path="url(#clip-elbow)">
    <g id="Group_65" data-name="Group 65">
      <path id="Subtraction_8" data-name="Subtraction 8" d="M19,48a1,1,0,0,1-1-1,42.656,42.656,0,0,0-.67-6.89,8.963,8.963,0,0,1-1.73-3l-.65-2c-1-1.068-2.432-2.486-3.952-3.988l-.528-.522C4.145,24.387,0,20.153,0,18c0-1.336,1.7-4.277,5.042-8.742C7.654,5.776,10.666,2.184,12.229.354a1,1,0,1,1,1.53,1.3C8.064,8.328,1.98,16.489,2,18c.02,1.486,6.255,7.623,9.969,11.149l2.31,2.29a.985.985,0,0,1,1.769.22l1.59,4.78a6.807,6.807,0,0,0,5.529,4.609c.983.184,4.9.27,7.238.27.829,0,1.455-.011,1.762-.03l-.05.06.015,0h.047a1,1,0,0,1,.059,2h-1.56c-2.443,0-6.734-.109-7.9-.28a8.871,8.871,0,0,1-3.1-1.07A48.041,48.041,0,0,1,20,47,1,1,0,0,1,19,48Zm8.074-21.337c-.091,0-.184,0-.275-.011h-.111a7.478,7.478,0,0,1-5.289-3.78,13.687,13.687,0,0,0-5.45-4.729A9.369,9.369,0,0,0,12,17.122a4.89,4.89,0,0,0-2.555.67.92.92,0,0,1-.33.12h-.17a.616.616,0,0,1-.1.008.629.629,0,0,1-.1-.008h-.06a1.6,1.6,0,0,1-.27-.12.583.583,0,0,1-.139-.13,1,1,0,0,1-.14-.15.669.669,0,0,1-.049-.13.787.787,0,0,1-.07-.2.611.611,0,0,1,0-.19,1.115,1.115,0,0,1,0-.19,1.585,1.585,0,0,1,.08-.2.67.67,0,0,1,.049-.13l10-16a1,1,0,0,1,1.679,1.059l-8.569,13.7c.243-.016.481-.024.707-.024a10.585,10.585,0,0,1,4.892,1.2,15.53,15.53,0,0,1,6.29,5.5,5.525,5.525,0,0,0,3.84,2.829,2.938,2.938,0,0,0,3.24-2.5l.73-4.129c-.057-.037-.117-.069-.175-.1a1.821,1.821,0,0,1-.245-.15,11.15,11.15,0,0,1-5-9.32V1a1,1,0,1,1,2,0v7.54a9.191,9.191,0,0,0,4.1,7.659,7,7,0,0,0,7.8,0,1.013,1.013,0,0,1,1.1,1.7,8.969,8.969,0,0,1-5,1.52h-.009A8.763,8.763,0,0,1,32.847,19l-.62,3.55a5,5,0,0,1-4.879,4.1C27.256,26.659,27.164,26.663,27.073,26.663Z" transform="translate(17.313 8)"/>
      <path id="Intersection_1" data-name="Intersection 1" d="M4,11V3.41L1.7,5.71A1,1,0,1,1,.3,4.29l4-4a1,1,0,0,1,1.41,0l4,4A1,1,0,0,1,8.3,5.71l-2.3-2.3V11a1,1,0,0,1-2,0Z" transform="translate(13.485 28.223) rotate(45)"/>
    </g>
  </g>
</svg>
