<svg xmlns="http://www.w3.org/2000/svg" xmlns:xlink="http://www.w3.org/1999/xlink" width="64" height="64" viewBox="0 0 64 64">
  <defs>
    <clipPath id="clip-keep_6_feet">
      <rect width="64" height="64"/>
    </clipPath>
  </defs>
  <g id="keep_6_feet" clip-path="url(#clip-keep_6_feet)">
    <g id="Group_59" data-name="Group 59" transform="translate(633.361 -1074.294)">
      <g id="noun_Man_220289" transform="translate(-633.361 1088.294)">
        <g id="Group_45" data-name="Group 45" transform="translate(0 0)">
          <path id="Path_356" data-name="Path 356" d="M42.483,27.466H37.158a4.524,4.524,0,0,0-4.519,4.519v10.2A2.064,2.064,0,0,0,34.7,44.247a2.041,2.041,0,0,0,.713-.134v8.794a2.538,2.538,0,0,0,4.407,1.722,2.538,2.538,0,0,0,4.407-1.722V44.113a2.041,2.041,0,0,0,.713.134A2.064,2.064,0,0,0,47,42.185v-10.2A4.523,4.523,0,0,0,42.483,27.466Zm3.17,14.72a.713.713,0,0,1-1.425,0V33.574a.675.675,0,1,0-1.349,0V52.906a1.192,1.192,0,0,1-2.382.046c0-.016,0-.031,0-.046V44.025a.675.675,0,0,0-.675-.675h-.007a.675.675,0,0,0-.675.675v8.881c0,.016,0,.031,0,.046a1.192,1.192,0,0,1-2.382-.046V33.574a.675.675,0,0,0-1.349,0v8.612a.713.713,0,0,1-1.425,0v-10.2a3.173,3.173,0,0,1,3.17-3.17h5.325a3.173,3.173,0,0,1,3.17,3.17v10.2Z" transform="translate(-32.639 -18.125)"/>
          <path id="Path_357" data-name="Path 357" d="M43.518,14.042A4.579,4.579,0,1,0,38.94,9.464,4.584,4.584,0,0,0,43.518,14.042Zm0-7.808a3.23,3.23,0,1,1-3.23,3.23A3.233,3.233,0,0,1,43.518,6.234Z" transform="translate(-36.334 -4.885)"/>
        </g>
      </g>
      <g id="noun_Man_220289-2" data-name="noun_Man_220289" transform="translate(-583.723 1088.294)">
        <g id="Group_45-2" data-name="Group 45" transform="translate(0 0)">
          <path id="Path_356-2" data-name="Path 356" d="M42.483,27.466H37.158a4.524,4.524,0,0,0-4.519,4.519v10.2A2.064,2.064,0,0,0,34.7,44.247a2.041,2.041,0,0,0,.713-.134v8.794a2.538,2.538,0,0,0,4.407,1.722,2.538,2.538,0,0,0,4.407-1.722V44.113a2.041,2.041,0,0,0,.713.134A2.064,2.064,0,0,0,47,42.185v-10.2A4.523,4.523,0,0,0,42.483,27.466Zm3.17,14.72a.713.713,0,0,1-1.425,0V33.574a.675.675,0,1,0-1.349,0V52.906a1.192,1.192,0,0,1-2.382.046c0-.016,0-.031,0-.046V44.025a.675.675,0,0,0-.675-.675h-.007a.675.675,0,0,0-.675.675v8.881c0,.016,0,.031,0,.046a1.192,1.192,0,0,1-2.382-.046V33.574a.675.675,0,0,0-1.349,0v8.612a.713.713,0,0,1-1.425,0v-10.2a3.173,3.173,0,0,1,3.17-3.17h5.325a3.173,3.173,0,0,1,3.17,3.17v10.2Z" transform="translate(-32.639 -18.125)"/>
          <path id="Path_357-2" data-name="Path 357" d="M43.518,14.042A4.579,4.579,0,1,0,38.94,9.464,4.584,4.584,0,0,0,43.518,14.042Zm0-7.808a3.23,3.23,0,1,1-3.23,3.23A3.233,3.233,0,0,1,43.518,6.234Z" transform="translate(-36.334 -4.885)"/>
        </g>
      </g>
      <path id="Path_358" data-name="Path 358" d="M6.616,0a1.113,1.113,0,0,0-.683.269L.308,5.564A1.137,1.137,0,0,0,.225,7.011,1.034,1.034,0,0,0,1.673,7l3.95-3.723v13.6a.993.993,0,0,0,1.986,0V3.278L11.559,7a1.094,1.094,0,0,0,1.448.01,1.122,1.122,0,0,0-.083-1.448L7.3.269A.955.955,0,0,0,6.616,0Z" transform="translate(-587.874 1100.29) rotate(90)"/>
      <path id="Path_359" data-name="Path 359" d="M6.616,0a1.113,1.113,0,0,0-.683.269L.308,5.564A1.137,1.137,0,0,0,.225,7.011,1.034,1.034,0,0,0,1.673,7l3.95-3.723v13.6a.993.993,0,0,0,1.986,0V3.278L11.559,7a1.094,1.094,0,0,0,1.448.01,1.122,1.122,0,0,0-.083-1.448L7.3.269A.955.955,0,0,0,6.616,0Z" transform="translate(-614.844 1113.526) rotate(-90)"/>
      <path id="Path_363" data-name="Path 363" d="M5.19-2.129H3.033V-6.293q0-.759.032-1.388a4.614,4.614,0,0,1-.495.506l-.893.737L.574-7.794l2.7-2.2H5.19Zm1.851-.893a.985.985,0,0,1,.293-.764,1.219,1.219,0,0,1,.853-.269A1.147,1.147,0,0,1,9-3.786a1,1,0,0,1,.285.764A.979.979,0,0,1,9-2.266a1.145,1.145,0,0,1-.81.272,1.229,1.229,0,0,1-.839-.269A.956.956,0,0,1,7.041-3.022Zm6.295-4.261a2.406,2.406,0,0,1,1.224.315,2.177,2.177,0,0,1,.85.89,2.8,2.8,0,0,1,.3,1.329,2.563,2.563,0,0,1-.794,2.023,3.529,3.529,0,0,1-2.4.7,5.142,5.142,0,0,1-2.249-.425V-4.189a5.661,5.661,0,0,0,1.057.355,4.491,4.491,0,0,0,1.014.14,1.441,1.441,0,0,0,.909-.25.885.885,0,0,0,.317-.74.845.845,0,0,0-.323-.7,1.575,1.575,0,0,0-.979-.253,3.522,3.522,0,0,0-1.081.188l-.78-.387.3-4.153h4.487v1.77H12.507l-.1,1.038a4.817,4.817,0,0,1,.6-.089Q13.185-7.283,13.335-7.283ZM23.358-2.129,21.75-7.794H21.7q.113,1.447.113,2.249v3.416H19.931V-9.994h2.83L24.4-4.41h.043l1.609-5.584h2.835v7.866H26.936V-5.577q0-.269.008-.6t.073-1.609h-.048L25.381-2.129Z" transform="translate(-616.004 1094.288)"/>
      <path id="Path_362" data-name="Path 362" d="M.479-5.534A6.341,6.341,0,0,1,.944-8.171,3.081,3.081,0,0,1,2.318-9.659a4.751,4.751,0,0,1,2.238-.479,7.959,7.959,0,0,1,1.107.09V-8.4a6.193,6.193,0,0,0-1.155-.1,2.293,2.293,0,0,0-1.57.463,2.077,2.077,0,0,0-.564,1.512h.064a1.617,1.617,0,0,1,1.538-.9,2.005,2.005,0,0,1,1.61.668,2.771,2.771,0,0,1,.572,1.86A2.777,2.777,0,0,1,5.434-2.88a2.7,2.7,0,0,1-2.023.743,2.705,2.705,0,0,1-2.156-.894A3.692,3.692,0,0,1,.479-5.534ZM3.363-3.8a.676.676,0,0,0,.546-.253,1.254,1.254,0,0,0,.21-.806q0-.947-.735-.947a.764.764,0,0,0-.588.245.846.846,0,0,0-.226.6,1.483,1.483,0,0,0,.218.838A.664.664,0,0,0,3.363-3.8Zm8.873,1.56H10.166v-7.782h4.6v1.687H12.236v1.485h2.331v1.687H12.236Zm7.239,0h-2.1V-8.307h-1.9v-1.719h5.9v1.719H19.475Z" transform="translate(-612.019 1131.157)"/>
    </g>
  </g>
</svg>
