<svg xmlns="http://www.w3.org/2000/svg" xmlns:xlink="http://www.w3.org/1999/xlink" width="64" height="64" viewBox="0 0 64 64">
  <defs>
    <clipPath id="clip-no_covid">
      <rect width="64" height="64"/>
    </clipPath>
  </defs>
  <g id="no_covid" clip-path="url(#clip-no_covid)">
    <g id="noun_coronavirus_3377862">
      <path id="Path_408" data-name="Path 408" d="M32,0A32,32,0,1,0,64,32,32,32,0,0,0,32,0ZM2,32A30,30,0,0,1,52.5,10.1L47.575,15.03l-1.3-1.3a1,1,0,0,0-1.415,1.415l1.3,1.3L43.325,19.28c-.075-.21-.15-.43-.22-.65a4.549,4.549,0,0,0-1.745-2.805,4.528,4.528,0,0,0-3.27-.11,4.455,4.455,0,0,1-1.75.17,4.35,4.35,0,0,1-1.365-1A6.62,6.62,0,0,0,33,13.525V11h1.84a1,1,0,0,0,0-2H29.16a1,1,0,0,0,0,2H31v2.525A6.62,6.62,0,0,0,29.045,14.9a4.35,4.35,0,0,1-1.365,1,4.465,4.465,0,0,1-1.75-.17,4.424,4.424,0,0,0-3.27.11,4.71,4.71,0,0,0-1.745,2.8c-.07.22-.145.44-.22.65L17.86,16.46l1.3-1.3a1,1,0,1,0-1.415-1.415l-4,4A1,1,0,0,0,15.16,19.16l1.3-1.3,2.835,2.835-.65.22A4.549,4.549,0,0,0,15.84,22.66a4.528,4.528,0,0,0-.11,3.27,4.455,4.455,0,0,1,.17,1.75,4.35,4.35,0,0,1-1,1.365A6.62,6.62,0,0,0,13.525,31H11V29.16a1,1,0,0,0-2,0v5.68a1,1,0,0,0,2,0V33h2.525A6.62,6.62,0,0,0,14.9,34.955a4.35,4.35,0,0,1,1,1.365,4.455,4.455,0,0,1-.17,1.75,4.424,4.424,0,0,0,.11,3.27,4.71,4.71,0,0,0,2.8,1.745l.65.22L16.46,46.14l-1.3-1.3a1,1,0,1,0-1.415,1.415l1.3,1.3L10.1,52.5A29.9,29.9,0,0,1,2,32Zm44.18-3.8a5.655,5.655,0,0,0,1.44,2.185c.5.55,1.055,1.175,1.055,1.615s-.56,1.065-1.055,1.615A5.655,5.655,0,0,0,46.18,35.8a5.765,5.765,0,0,0,.15,2.685,3.5,3.5,0,0,1,.115,1.855c-.2.355-1,.615-1.69.84a5.72,5.72,0,0,0-2.375,1.2,5.72,5.72,0,0,0-1.2,2.375c-.225.7-.5,1.5-.84,1.69a3.609,3.609,0,0,1-1.855-.115,5.765,5.765,0,0,0-2.685-.15,5.655,5.655,0,0,0-2.185,1.44c-.55.5-1.175,1.055-1.615,1.055s-1.065-.56-1.615-1.055A5.655,5.655,0,0,0,28.2,46.18a3.465,3.465,0,0,0-.875-.1,8.585,8.585,0,0,0-1.81.255,3.5,3.5,0,0,1-1.855.115c-.355-.2-.615-1-.84-1.69a9.73,9.73,0,0,0-.605-1.555l21-21a10.23,10.23,0,0,0,1.555.605c.695.225,1.5.5,1.69.84a3.609,3.609,0,0,1-.115,1.855,5.765,5.765,0,0,0-.165,2.7ZM17.82,35.8a5.655,5.655,0,0,0-1.44-2.185c-.5-.55-1.055-1.175-1.055-1.615s.56-1.065,1.055-1.615A5.655,5.655,0,0,0,17.82,28.2a5.765,5.765,0,0,0-.15-2.685,3.5,3.5,0,0,1-.115-1.855c.2-.355,1-.615,1.69-.84a5.72,5.72,0,0,0,2.375-1.2,5.72,5.72,0,0,0,1.2-2.375c.225-.695.5-1.5.84-1.69a3.609,3.609,0,0,1,1.855.115,5.765,5.765,0,0,0,2.685.15,5.655,5.655,0,0,0,2.185-1.44c.55-.5,1.175-1.055,1.615-1.055s1.065.56,1.615,1.055A5.655,5.655,0,0,0,35.8,17.82a5.765,5.765,0,0,0,2.685-.15,3.5,3.5,0,0,1,1.855-.115c.355.2.615,1,.84,1.69a9.73,9.73,0,0,0,.6,1.555l-21,21a10.23,10.23,0,0,0-1.555-.6c-.695-.225-1.5-.5-1.69-.84a3.609,3.609,0,0,1,.115-1.855,5.765,5.765,0,0,0,.165-2.7ZM32,62a29.9,29.9,0,0,1-20.5-8.1l4.925-4.925,1.3,1.3a1,1,0,1,0,1.415-1.415l-1.3-1.3,2.835-2.835c.075.21.15.43.22.65a4.549,4.549,0,0,0,1.745,2.805,4.528,4.528,0,0,0,3.27.11,4.455,4.455,0,0,1,1.75-.17,4.35,4.35,0,0,1,1.365,1A6.62,6.62,0,0,0,31,50.5V53H29.16a1,1,0,0,0,0,2h5.68a1,1,0,0,0,0-2H33V50.5a6.62,6.62,0,0,0,1.955-1.375,4.35,4.35,0,0,1,1.365-1,4.465,4.465,0,0,1,1.75.17,4.424,4.424,0,0,0,3.27-.11,4.71,4.71,0,0,0,1.745-2.805c.07-.22.145-.44.22-.65l2.835,2.835-1.3,1.3a1,1,0,1,0,1.415,1.415l4-4a1,1,0,0,0-1.415-1.415l-1.3,1.3L44.705,43.33l.65-.22a4.549,4.549,0,0,0,2.805-1.745,4.528,4.528,0,0,0,.11-3.27,4.455,4.455,0,0,1-.17-1.75,4.35,4.35,0,0,1,1-1.365A6.62,6.62,0,0,0,50.5,33H53v1.84a1,1,0,0,0,2,0V29.16a1,1,0,0,0-2,0V31H50.5a6.62,6.62,0,0,0-1.375-1.955,4.35,4.35,0,0,1-1-1.365,4.455,4.455,0,0,1,.17-1.75,4.424,4.424,0,0,0-.11-3.27,4.71,4.71,0,0,0-2.805-1.745l-.65-.22,2.835-2.835,1.3,1.3a1,1,0,1,0,1.415-1.415l-1.3-1.3L53.9,11.5A30,30,0,0,1,32,62Z"/>
      <path id="Path_409" data-name="Path 409" d="M43.679,63.99a3.135,3.135,0,1,0-2.215-.92A3.09,3.09,0,0,0,43.679,63.99Zm-.8-3.93a1.13,1.13,0,0,1,1.595,1.6,1.155,1.155,0,0,1-1.595,0h0a1.135,1.135,0,0,1,0-1.6Z" transform="translate(-20.274 -28.86)"/>
      <path id="Path_410" data-name="Path 410" d="M60.869,46.79a3.135,3.135,0,1,0-2.21-.915,3.135,3.135,0,0,0,2.21.915Zm-.8-3.925a1.13,1.13,0,1,1-.33.8,1.13,1.13,0,0,1,.33-.8Z" transform="translate(-28.869 -20.26)"/>
      <path id="Path_411" data-name="Path 411" d="M78.051,57.74a3.135,3.135,0,1,0,2.215.92A3.09,3.09,0,0,0,78.051,57.74Zm.8,3.93a1.155,1.155,0,0,1-1.6,0,1.13,1.13,0,1,1,1.6,0Z" transform="translate(-37.456 -28.87)"/>
      <path id="Path_412" data-name="Path 412" d="M60.861,74.94a3.135,3.135,0,1,0,2.21.915A3.135,3.135,0,0,0,60.861,74.94Zm.8,3.925a1.135,1.135,0,0,1-1.6,0h0a1.13,1.13,0,1,1,1.6,0Z" transform="translate(-28.861 -37.47)"/>
    </g>
  </g>
</svg>
