<svg xmlns="http://www.w3.org/2000/svg" xmlns:xlink="http://www.w3.org/1999/xlink" width="64" height="64" viewBox="0 0 64 64">
  <defs>
    <clipPath id="clip-no_cash">
      <rect width="64" height="64"/>
    </clipPath>
  </defs>
  <g id="no_cash" clip-path="url(#clip-no_cash)">
    <g id="Group_61" data-name="Group 61" transform="translate(-268 -1404)">
      <path id="Path_391" data-name="Path 391" d="M54.757,9.519l-.275-.28a31.95,31.95,0,0,0-41.865-2.69,32.254,32.254,0,0,0-7.371,7.911,31.929,31.929,0,0,0,4,40.005c.04.05.22.225.275.275a31.977,31.977,0,0,0,50.7-37.81,32.289,32.289,0,0,0-5.5-7.411Zm-38.34-3.15a57.064,57.064,0,0,1,8.471,5.4c1.565,1.58,3.24,4.151,3.235,5.461s-.06,3.5-.1,4.761L25,21.5c-1-1.58-2.5-3.82-4.611-7.111l-1.165-1.8a1,1,0,0,0-1.68,1.09l1.17,1.8c6.706,10.341,6.706,10.341,7.561,11.7,1.19,1.89.525,3.2-.245,3.961a1.59,1.59,0,0,1-1.47.415,4.256,4.256,0,0,1-2.145-1.26,5.851,5.851,0,0,1-.6-.79c-.38-.555-.955-1.39-2.175-2.905-.435-.54-.845-1.035-1.235-1.5a.96.96,0,0,0-.34-.41c-1.5-1.785-2.645-3.03-3.405-3.855-.26-.285-.47-.5-.62-.685a4.968,4.968,0,0,0-2.87-1.24,7.806,7.806,0,0,1-4.826-2.455A30.259,30.259,0,0,1,16.417,6.368ZM9.146,20.5c.585.17,1.135.285,1.63.385l.145.03c-.24,1.5-.625,4.826.2,5.871.205.255.5.72.815,1.22.38.6.79,1.245,1.21,1.805a1.315,1.315,0,0,1-.725.75,1.19,1.19,0,0,1-1.575-.43c-.67-1-2.875-5.5-2.925-6.331A12.422,12.422,0,0,1,9.146,20.5Zm5.5,7.966c-.345-.5-.705-1.04-1-1.53s-.64-1-.9-1.35a13.98,13.98,0,0,1,.07-3.815l.4.435c.7.76,1.735,1.885,3.065,3.46ZM5.335,18.275a8.691,8.691,0,0,0,1.955,1.45,13.829,13.829,0,0,0-1.37,4.046c0,1.545,2.82,6.776,3.26,7.441a3.14,3.14,0,0,0,2.645,1.46,3.32,3.32,0,0,0,.385,0l-2,3.45a.65.65,0,0,0-.07.16h0a.655.655,0,0,0-.03.135v.055a.96.96,0,0,0,0,.12s0,.05,0,.075a.775.775,0,0,0,0,.105.61.61,0,0,0,0,.085.425.425,0,0,0,.03.085.535.535,0,0,0,.035.1l.045.075.055.09.08.085.055.06a1,1,0,0,0,.165.12h0L17.367,41.4a.96.96,0,0,0,.5.14,1,1,0,0,0,.5-1.87l-5.921-3.43,5.181-8.956.46.57c1.175,1.455,1.72,2.255,2.085,2.78a6.786,6.786,0,0,0,.83,1.06,6.111,6.111,0,0,0,3.22,1.805,4.3,4.3,0,0,0,.71.06,3.5,3.5,0,0,0,2.5-1,4.7,4.7,0,0,0,1.32-4.636l1.2.675a1.006,1.006,0,1,0,1-1.745l-3.9-2.2-.585-.905L33.839,25A.92.92,0,0,0,34,25a1,1,0,1,0,.165-2L30,22.315c.03-1.21.1-3.7.1-5.081,0-2.39-2.5-5.546-3.815-6.881s-5.261-3.67-7.816-5.126a29.924,29.924,0,0,1,34,4.871L10.106,52.5a29.919,29.919,0,0,1-4.771-34.2ZM32,62a29.9,29.9,0,0,1-20.5-8.106l42.4-42.4A30,30,0,0,1,32,62Z" transform="translate(268.001 1404.015)"/>
      <path id="Path_392" data-name="Path 392" d="M80.741,52.285a1,1,0,0,0-.65-.42l-12.127-2.15a1,1,0,1,0-.35,1.97l11.121,1.97-3.11,15.552-4.111-.685,2.665-4.8a1,1,0,0,0-.38-1.375L62.453,55.98a1,1,0,0,0-1,1.74l10.5,5.9L64.333,77.313,49.287,68.587a1,1,0,0,0-1,1.73l15.922,9.236a1,1,0,0,0,.5.135,1.245,1.245,0,0,0,.265-.035,1,1,0,0,0,.605-.5l4.9-8.8,5.776,1a.921.921,0,0,0,.165,0,1,1,0,0,0,1-.805l3.5-17.5a1,1,0,0,0-.175-.76Z" transform="translate(244.092 1379.161)"/>
      <path id="Subtraction_2" data-name="Subtraction 2" d="M2.638,5.208H.016C.005,5.074,0,4.941,0,4.812A4.837,4.837,0,0,1,4.852,0c.059,0,.118,0,.177,0V2.591c-.054,0-.113-.007-.177-.007A2.246,2.246,0,0,0,2.6,4.814a2.219,2.219,0,0,0,.035.393Z" transform="translate(309.412 1444.71) rotate(-60)"/>
      <path id="Subtraction_4" data-name="Subtraction 4" d="M2.638,5.208H.016C.005,5.074,0,4.941,0,4.812A4.837,4.837,0,0,1,4.852,0c.059,0,.118,0,.177,0V2.591c-.054,0-.113-.007-.177-.007A2.246,2.246,0,0,0,2.6,4.814a2.219,2.219,0,0,0,.035.393Z" transform="translate(306.548 1449.823) rotate(30)"/>
      <path id="Subtraction_6" data-name="Subtraction 6" d="M2.638,5.208H.016C.005,5.074,0,4.941,0,4.812A4.837,4.837,0,0,1,4.852,0c.059,0,.118,0,.177,0V2.591c-.054,0-.113-.007-.177-.007A2.246,2.246,0,0,0,2.6,4.814a2.219,2.219,0,0,0,.035.393Z" transform="matrix(0.259, -0.966, 0.966, 0.259, 316.759, 1436.588)"/>
      <path id="Subtraction_7" data-name="Subtraction 7" d="M2.412,5.992A3.564,3.564,0,0,1,0,5.051L1.359,3.692A1.657,1.657,0,0,0,3.692,1.36L5.051,0A3.576,3.576,0,0,1,2.412,5.992Z" transform="translate(295.987 1439.102)"/>
    </g>
  </g>
</svg>
