<svg xmlns="http://www.w3.org/2000/svg" xmlns:xlink="http://www.w3.org/1999/xlink" width="64" height="64" viewBox="0 0 64 64">
  <defs>
    <clipPath id="clip-no_handshake">
      <rect width="64" height="64"/>
    </clipPath>
  </defs>
  <g id="no_handshake" clip-path="url(#clip-no_handshake)">
    <g id="noun_stop_shake_3284086" data-name="noun_stop shake_3284086" transform="translate(-0.081 -0.018)">
      <g id="Group_50" data-name="Group 50" transform="translate(0.081 0.018)">
        <path id="Path_372" data-name="Path 372" d="M32.016.018a32,32,0,1,0,32,32A32.037,32.037,0,0,0,32.016.018ZM20.084,24.38,10.723,40.6l-.713-.409,9.361-16.216ZM31.691,51.225a1.334,1.334,0,0,1-.542.9l-1.709,1.239a1.345,1.345,0,1,1-1.578-2.179l1.712-1.239a1.352,1.352,0,0,1,1.853.272A1.313,1.313,0,0,1,31.691,51.225Zm6.22-12.9a.983.983,0,0,0-.08.761,1.009,1.009,0,0,0,.481.6l7.1,3.872a1.345,1.345,0,0,1-.264,2.47,1.314,1.314,0,0,1-1.023-.109L36.92,41.982a1.014,1.014,0,0,0-.764-.08,1,1,0,0,0-.192,1.84L41.8,46.92a1.346,1.346,0,0,1-1.287,2.364L34.4,45.954a1,1,0,0,0-1.357.4.977.977,0,0,0-.08.758.988.988,0,0,0,.481.6l4.735,2.583A1.346,1.346,0,0,1,36.9,52.657l-3.183-1.736A3.289,3.289,0,0,0,33.021,49a3.323,3.323,0,0,0-2.19-1.282A3.356,3.356,0,0,0,27.973,44a3.356,3.356,0,0,0-2.858-3.72,3.346,3.346,0,0,0-5.283-3.114l-4.981,3.605L13.4,39.99l6.965-12.063,1.13.654a1.053,1.053,0,0,0,.62.131l3.378-.4.977.411-.676,2.649a1.08,1.08,0,0,0-.029.243v6.257a4.128,4.128,0,0,0,8.255,0V32l15.012,8.18a1.337,1.337,0,0,1,.641.8,1.321,1.321,0,0,1-.1,1.023,1.37,1.37,0,0,1-1.827.537l-8.474-4.618A1.008,1.008,0,0,0,37.91,38.321Zm-22.1,4.206,5.184-3.752a1.377,1.377,0,0,1,.791-.259,1.35,1.35,0,0,1,.785,2.438l-5.186,3.752a1.352,1.352,0,0,1-1.88-.3A1.359,1.359,0,0,1,15.808,42.527Zm4.062,2.852,3.867-2.8.085-.056a1.6,1.6,0,0,1,.3-.176,1.4,1.4,0,0,1,.529-.107h.069a1.362,1.362,0,0,1,.993.526,1.365,1.365,0,0,1-.28,1.912L21.406,47.6a1.351,1.351,0,0,1-1.864-.28,1.293,1.293,0,0,1-.238-.983A1.419,1.419,0,0,1,19.87,45.379ZM23.841,48.3l2.764-2,.107-.077A1.336,1.336,0,0,1,28.825,47.5a1.329,1.329,0,0,1-.537.9L25.42,50.478a1.288,1.288,0,0,1-1,.235,1.331,1.331,0,0,1-.876-.539A1.348,1.348,0,0,1,23.841,48.3Zm26.146-9.873L35.04,30.274l.414-.662a1,1,0,1,0-1.7-1.06l-1.589,2.54a1.035,1.035,0,0,0-.15.529v6.257a2.127,2.127,0,1,1-4.254,0l-.008-6.1,1.351-5.411h7.659l3.971,1.311a1,1,0,0,0,.921-.155l1.042-.8,8.439,11.081-1,.705C50.094,38.481,50.041,38.452,49.987,38.422ZM32.016,2.157A29.814,29.814,0,0,1,54.952,12.925L40.576,22.153a1.011,1.011,0,0,0-.443.67,1,1,0,0,0,.187.777l1.17,1.536-.622.478-3.624-1.2a1.058,1.058,0,0,0-.312-.048h-8.6a1,1,0,0,0-.969.756l-.409,1.632-.935-.39a.918.918,0,0,0-.5-.072l-3.312.385-.847-.489.964-1.672a1.007,1.007,0,0,0,.1-.761,1,1,0,0,0-.465-.606L7.713,14.928a1.017,1.017,0,0,0-.118-.04A29.827,29.827,0,0,1,32.016,2.157Zm0,59.722A29.8,29.8,0,0,1,6.57,16.472c.059.059.072.15.144.19l10.923,6.305L8.277,39.183l-.561-.326a1.007,1.007,0,0,0-1.37.366,1,1,0,0,0,.366,1.367l3.872,2.238a1.011,1.011,0,0,0,.758.1.992.992,0,0,0,.609-.465l.433-.745,1.13.6a3.334,3.334,0,0,0,.371,3.261A3.392,3.392,0,0,0,17.3,46.888a3.24,3.24,0,0,0,.641,1.626A3.434,3.434,0,0,0,21.31,49.77a3.352,3.352,0,0,0,4.014,2.892,3.34,3.34,0,0,0,2.794,2.911,3.15,3.15,0,0,0,.5.045l.037,0a3.323,3.323,0,0,0,1.955-.633l1.712-1.237a3.379,3.379,0,0,0,.823-.855l2.786,1.52a3.3,3.3,0,0,0,2.548.272,3.336,3.336,0,0,0,1.992-1.61,3.289,3.289,0,0,0,.409-1.637,3.359,3.359,0,0,0,3.21-1.731,3.315,3.315,0,0,0,.406-1.637A3.344,3.344,0,0,0,48.115,44.7a3.249,3.249,0,0,0,1.218-.126A3.35,3.35,0,0,0,51.6,40.42a3.085,3.085,0,0,0-.136-.382l.892-.633.523.686a1,1,0,0,0,.67.385.967.967,0,0,0,.745-.206l2.024-1.605A.974.974,0,0,0,56.688,38a1,1,0,0,0-.879-1.108.965.965,0,0,0-.734.211l-1.226.969L42.565,23.25l13.6-8.728A29.808,29.808,0,0,1,32.016,61.879Z" transform="translate(-0.019 -0.018)"/>
        <path id="Path_373" data-name="Path 373" d="M11.273,16.32c.008.008.008.021.019.029s.021.011.029.019a8.659,8.659,0,0,0,12.226,0c.008-.008.021-.011.029-.019s.011-.021.019-.029a8.666,8.666,0,0,0,0-12.232c-.008-.008-.011-.021-.019-.029s-.021-.011-.029-.019a8.659,8.659,0,0,0-12.226,0c-.008.008-.021.011-.029.019s-.011.021-.019.029a8.666,8.666,0,0,0,0,12.232ZM12.12,6.4l3.8,3.8-3.8,3.8a6.455,6.455,0,0,1,0-7.606Zm1.512,9.118,3.8-3.8,3.8,3.8a6.467,6.467,0,0,1-7.606,0Zm9.118-1.512-3.8-3.8,3.8-3.8a6.455,6.455,0,0,1,0,7.606ZM21.238,4.89l-3.8,3.8-3.8-3.8a6.467,6.467,0,0,1,7.606,0Z" transform="translate(14.563 2.481)"/>
      </g>
    </g>
  </g>
</svg>
