<svg xmlns="http://www.w3.org/2000/svg" xmlns:xlink="http://www.w3.org/1999/xlink" width="64" height="64" viewBox="0 0 64 64">
  <defs>
    <clipPath id="clip-sanitize_hands">
      <rect width="64" height="64"/>
    </clipPath>
  </defs>
  <g id="sanitize_hands" clip-path="url(#clip-sanitize_hands)">
    <g id="Group_60" data-name="Group 60" transform="translate(-467.929 -1128)">
      <path id="Path_367" data-name="Path 367" d="M38.186,16.879V11.143a1.012,1.012,0,0,0-1.013-1.013H35.237V7.29h.732a1.014,1.014,0,0,0,1.013-1.013V2.913H39.13a1.013,1.013,0,0,0,0-2.025l-3.141,0c-.008,0-.013,0-.018,0L22.025.908,11.933,2.825a1.013,1.013,0,0,0,.19,2.007.968.968,0,0,0,.19-.02l9.905-1.9h3.164V6.277A1.012,1.012,0,0,0,26.395,7.29h.732v2.84H25.19a1.014,1.014,0,0,0-1.013,1.013v5.736a6.138,6.138,0,0,0-5.429,5.477c-.013.1-.024,5.743-.024,5.979a1.013,1.013,0,0,0,2.025,0c0-.068,0-5.549.011-5.751a4.055,4.055,0,0,1,4.069-3.744H37.543a4.087,4.087,0,0,1,4.083,4.081V51.04a4.085,4.085,0,0,1-4.083,4.081H24.833A4.087,4.087,0,0,1,20.75,51.04a1.013,1.013,0,1,0-2.025,0,6.115,6.115,0,0,0,6.108,6.108h12.71a6.115,6.115,0,0,0,6.108-6.108V22.921A6.113,6.113,0,0,0,38.186,16.879ZM34.956,2.913V5.262H27.4V2.913ZM29.144,7.29h4.065v2.84H29.144V7.29Zm-2.949,9.523V12.155h9.964v4.658Z" transform="translate(488.278 1130.959)"/>
      <path id="Path_368" data-name="Path 368" d="M13.228,13.425a3.509,3.509,0,0,0,3.505-3.507c0-1.6-2.279-5.6-2.735-6.383a.925.925,0,0,0-1.538,0C12,4.321,9.725,8.315,9.725,9.918A3.509,3.509,0,0,0,13.228,13.425Zm0-7.611a15.39,15.39,0,0,1,1.725,4.1,1.725,1.725,0,1,1-3.45,0A15.529,15.529,0,0,1,13.228,5.814Z" transform="translate(487.534 1136.684)"/>
      <path id="Path_370" data-name="Path 370" d="M6.067,16.246A3.664,3.664,0,1,0,2.4,12.58,3.668,3.668,0,0,0,6.067,16.246Zm0-5.361a1.7,1.7,0,1,1-1.7,1.7A1.7,1.7,0,0,1,6.067,10.884Z" transform="translate(490.681 1143.392)"/>
      <path id="Path_371" data-name="Path 371" d="M8.727,11.951A2.965,2.965,0,1,0,5.763,8.987,2.969,2.969,0,0,0,8.727,11.951ZM7.457,8.987a1.271,1.271,0,1,1,1.271,1.269A1.272,1.272,0,0,1,7.457,8.987Z" transform="translate(482.679 1140.232)"/>
      <g id="Group_49" data-name="Group 49" transform="translate(467.929 1159.216)">
        <path id="Path_364" data-name="Path 364" d="M47.738,34.284a3.307,3.307,0,0,0-1.638-.456,2.889,2.889,0,0,0-.062-.985A2.86,2.86,0,0,0,44.7,31.049a2.93,2.93,0,0,0-1.71-.4,3.033,3.033,0,0,0-.062-.912,2.86,2.86,0,0,0-1.337-1.793,2.9,2.9,0,0,0-2.208-.332L26.839,30.738A9.238,9.238,0,0,0,20.4,28.147H12.44v-3.11A1.04,1.04,0,0,0,11.4,24H1.037a1.037,1.037,0,0,0,0,2.073h9.33v18.66H1.037a1.037,1.037,0,1,0,0,2.073H11.4A1.04,1.04,0,0,0,12.44,45.77V41.623h.777l10.6,5.712a7.23,7.23,0,0,0,6.3.28l17.239-7.391a3.3,3.3,0,0,0,1.887-3.908A3.34,3.34,0,0,0,47.738,34.284Zm-4.095-1.472a.811.811,0,0,1,.384.518.847.847,0,0,1-.622,1.026L33.069,36.937l-1.4-1.4,11.32-2.83A.95.95,0,0,1,43.643,32.812Zm-3.753-3.2a.873.873,0,0,1,.643.093.811.811,0,0,1,.384.518.847.847,0,0,1-.622,1.026L32.084,33.3l-2.125.529-1.4-1.4Zm6.655,8.708h0L29.306,45.707a5.192,5.192,0,0,1-4.5-.2L13.974,39.674a1.042,1.042,0,0,0-.5-.124H12.44V30.22h7.972a7.214,7.214,0,0,1,5.131,2.125l.27.27,3.11,3.11,1.814,1.814-2.322.581a2.08,2.08,0,0,1-1.97-.549l-2.9-2.9a1.034,1.034,0,0,0-1.462,1.462l2.9,2.9a4.167,4.167,0,0,0,2.944,1.213,4.09,4.09,0,0,0,1-.124l4.095-1.026,12.73-3.183a1.274,1.274,0,0,1,.8,2.405Z" transform="translate(0 -24)"/>
      </g>
    </g>
  </g>
</svg>
