<svg xmlns="http://www.w3.org/2000/svg" xmlns:xlink="http://www.w3.org/1999/xlink" width="64" height="64" viewBox="0 0 64 64">
  <defs>
    <clipPath id="clip-shopping_cart">
      <rect width="64" height="64"/>
    </clipPath>
  </defs>
  <g id="shopping_cart" clip-path="url(#clip-shopping_cart)">
    <g id="noun_cart_1239486" transform="translate(8 8)">
      <g id="Group_52" data-name="Group 52">
        <path id="Path_397" data-name="Path 397" d="M28.977,78.826a5.082,5.082,0,1,0,5.081,5.082A5.088,5.088,0,0,0,28.977,78.826Zm0,7.764a2.682,2.682,0,1,1,2.681-2.682A2.685,2.685,0,0,1,28.977,86.59Z" transform="translate(-12.425 -40.99)"/>
        <path id="Path_398" data-name="Path 398" d="M72.946,78.826a5.082,5.082,0,1,0,5.082,5.082A5.087,5.087,0,0,0,72.946,78.826Zm0,7.764a2.682,2.682,0,1,1,2.682-2.682A2.685,2.685,0,0,1,72.946,86.59Z" transform="translate(-35.289 -40.99)"/>
        <path id="Path_399" data-name="Path 399" d="M48,9.457c0-.006,0-.011,0-.017a1.238,1.238,0,0,0-.014-.14c0-.033-.006-.066-.012-.1a1.232,1.232,0,0,0-.037-.12c-.012-.035-.021-.071-.035-.1s-.036-.067-.054-.1-.036-.069-.058-.1-.049-.06-.075-.091-.046-.059-.072-.084a1.134,1.134,0,0,0-.094-.077c-.028-.023-.055-.048-.085-.068s-.066-.036-.1-.054a1.088,1.088,0,0,0-.108-.055c-.031-.013-.065-.02-.1-.03a1.219,1.219,0,0,0-.132-.037l-.017,0c-.034-.006-.067,0-.1-.007s-.07-.011-.106-.011H8.629l-1.5-7.3A1.2,1.2,0,0,0,5.956,0H1.2a1.2,1.2,0,0,0,0,2.4H4.977L6.41,9.383c0,.025-.007.048-.007.073A1.19,1.19,0,0,0,6.536,10l3.536,17.228a1.238,1.238,0,0,0,.024.236l1.32,6.489a1.2,1.2,0,0,0,1.176.961H42.6a1.2,1.2,0,0,0,0-2.4H13.571L12.715,28.3H43.724a1.176,1.176,0,0,0,.226-.023c.026-.005.051-.014.077-.021a1.2,1.2,0,0,0,.136-.042c.029-.012.057-.026.084-.04a1.249,1.249,0,0,0,.111-.06c.027-.017.052-.035.077-.054a1.215,1.215,0,0,0,.1-.081c.023-.021.044-.042.065-.064a1.216,1.216,0,0,0,.084-.1c.018-.024.036-.047.051-.072a1.245,1.245,0,0,0,.063-.117c.013-.027.027-.054.039-.082a1.251,1.251,0,0,0,.04-.129c.008-.03.018-.059.024-.09,0-.006,0-.012,0-.018L47.982,9.662c.006-.035,0-.07.008-.1A1,1,0,0,0,48,9.457Zm-2.628,1.2L42.714,25.9H12.25L9.122,10.657Z"/>
      </g>
    </g>
  </g>
</svg>
