<svg xmlns="http://www.w3.org/2000/svg" xmlns:xlink="http://www.w3.org/1999/xlink" width="64" height="64" viewBox="0 0 64 64">
  <defs>
    <clipPath id="clip-stand_markings">
      <rect width="64" height="64"/>
    </clipPath>
  </defs>
  <g id="stand_markings" clip-path="url(#clip-stand_markings)">
    <g id="Group_64" data-name="Group 64" transform="translate(-237.027 -1511.944)">
      <path id="Path_404" data-name="Path 404" d="M19.9,35.9a1.08,1.08,0,0,0-.7-.3.908.908,0,0,0-.7.3l-2.3,2.5a7.151,7.151,0,0,0-1.9,5.2,7.32,7.32,0,0,0,2.3,5,7.262,7.262,0,0,0,10.2-.4l2.3-2.5a.972.972,0,0,0-.1-1.4Zm5.5,11a5.227,5.227,0,0,1-7.4.3,5.575,5.575,0,0,1-1.7-3.7,5.024,5.024,0,0,1,1.4-3.8l1.6-1.8L27,45Z" transform="translate(208.902 1546.075) rotate(-48)"/>
      <path id="Path_406" data-name="Path 406" d="M19.9,35.9a1.08,1.08,0,0,0-.7-.3.908.908,0,0,0-.7.3l-2.3,2.5a7.151,7.151,0,0,0-1.9,5.2,7.32,7.32,0,0,0,2.3,5,7.262,7.262,0,0,0,10.2-.4l2.3-2.5a.972.972,0,0,0-.1-1.4Zm5.5,11a5.227,5.227,0,0,1-7.4.3,5.575,5.575,0,0,1-1.7-3.7,5.024,5.024,0,0,1,1.4-3.8l1.6-1.8L27,45Z" transform="matrix(0.777, -0.629, 0.629, 0.777, 240.07, 1539.009)"/>
      <path id="Path_405" data-name="Path 405" d="M46.9,15.7a8.687,8.687,0,0,0-8.3-2.1c-5.4,1.3-10,6.5-11.6,10.8a19.591,19.591,0,0,1-3.6,6.3,2.762,2.762,0,0,0,.2,3.7l6.7,6.1a2.567,2.567,0,0,0,1.8.7,2.732,2.732,0,0,0,1.9-.8,20.834,20.834,0,0,1,6-4.1c4.1-2,8.9-7,9.7-12.5A8.708,8.708,0,0,0,46.9,15.7Zm.9,7.8c-.7,4.6-4.9,9.2-8.6,11A24.275,24.275,0,0,0,32.6,39a.561.561,0,0,1-.9,0L25,32.9a.642.642,0,0,1-.1-.9,23.733,23.733,0,0,0,3.9-6.9c1.5-3.8,5.7-8.5,10.2-9.5a11.019,11.019,0,0,1,1.8-.2,6.743,6.743,0,0,1,4.7,1.9A6.581,6.581,0,0,1,47.8,23.5Z" transform="translate(208.902 1546.075) rotate(-48)"/>
      <path id="Path_407" data-name="Path 407" d="M46.9,15.7a8.687,8.687,0,0,0-8.3-2.1c-5.4,1.3-10,6.5-11.6,10.8a19.591,19.591,0,0,1-3.6,6.3,2.762,2.762,0,0,0,.2,3.7l6.7,6.1a2.567,2.567,0,0,0,1.8.7,2.732,2.732,0,0,0,1.9-.8,20.834,20.834,0,0,1,6-4.1c4.1-2,8.9-7,9.7-12.5A8.708,8.708,0,0,0,46.9,15.7Zm.9,7.8c-.7,4.6-4.9,9.2-8.6,11A24.275,24.275,0,0,0,32.6,39a.561.561,0,0,1-.9,0L25,32.9a.642.642,0,0,1-.1-.9,23.733,23.733,0,0,0,3.9-6.9c1.5-3.8,5.7-8.5,10.2-9.5a11.019,11.019,0,0,1,1.8-.2,6.743,6.743,0,0,1,4.7,1.9A6.581,6.581,0,0,1,47.8,23.5Z" transform="matrix(0.777, -0.629, 0.629, 0.777, 240.07, 1539.009)"/>
    </g>
  </g>
</svg>
