<svg xmlns="http://www.w3.org/2000/svg" xmlns:xlink="http://www.w3.org/1999/xlink" width="64" height="64" viewBox="0 0 64 64">
  <defs>
    <clipPath id="clip-wash_hands">
      <rect width="64" height="64"/>
    </clipPath>
  </defs>
  <g id="wash_hands" clip-path="url(#clip-wash_hands)">
    <g id="noun_wash_hand_3375039" data-name="noun_wash hand_3375039" transform="translate(7 7)">
      <g id="Group_47" data-name="Group 47">
        <g id="Group_46" data-name="Group 46">
          <path id="Path_364" data-name="Path 364" d="M48.179,34.379a3.338,3.338,0,0,0-1.653-.46,2.916,2.916,0,0,0-.063-.994,2.886,2.886,0,0,0-1.35-1.81,2.957,2.957,0,0,0-1.726-.408,3.061,3.061,0,0,0-.063-.921,2.886,2.886,0,0,0-1.35-1.81,2.924,2.924,0,0,0-2.228-.335L27.087,30.8a9.323,9.323,0,0,0-6.5-2.616H12.555V25.046A1.049,1.049,0,0,0,11.508,24H1.046a1.046,1.046,0,1,0,0,2.092h9.416V44.924H1.046a1.046,1.046,0,0,0,0,2.092H11.508a1.049,1.049,0,0,0,1.046-1.046V41.786h.785l10.7,5.765a7.3,7.3,0,0,0,6.361.282l17.4-7.46a3.331,3.331,0,0,0,1.9-3.944A3.371,3.371,0,0,0,48.179,34.379Zm-4.133-1.486a.818.818,0,0,1,.387.523.854.854,0,0,1-.628,1.036L33.375,37.057l-1.412-1.412,11.425-2.856A.958.958,0,0,1,44.046,32.893ZM40.259,29.66a.881.881,0,0,1,.649.094.818.818,0,0,1,.387.523.854.854,0,0,1-.628,1.036l-8.286,2.072-2.145.534-1.412-1.412Zm6.717,8.788h0l-17.4,7.46a5.24,5.24,0,0,1-4.541-.2L14.1,39.819a1.051,1.051,0,0,0-.5-.126H12.555V30.277H20.6a7.281,7.281,0,0,1,5.179,2.145l.272.272,3.139,3.139,1.831,1.831-2.344.586a2.1,2.1,0,0,1-1.988-.554L23.76,34.766a1.043,1.043,0,0,0-1.475,1.475l2.929,2.929a4.206,4.206,0,0,0,2.971,1.224,4.127,4.127,0,0,0,1-.126l4.133-1.036L46.17,36.021a1.286,1.286,0,0,1,.806,2.427Z" transform="translate(0 1.109)"/>
          <path id="Path_365" data-name="Path 365" d="M48.109,9.416H46.216a1.05,1.05,0,0,0-.91.523,5.222,5.222,0,0,1-9.05,0,1.021,1.021,0,0,0-.9-.523H33.462a2.1,2.1,0,0,0-2.092,2.092V13.6H27.185V10.462a5.233,5.233,0,0,1,5.231-5.231h2.94a1.05,1.05,0,0,0,.91-.523,5.222,5.222,0,0,1,9.05,0,1.021,1.021,0,0,0,.9.523h1.894a1.046,1.046,0,0,0,0-2.092H46.791a7.314,7.314,0,0,0-12.011,0H32.416a7.332,7.332,0,0,0-7.324,7.324V13.6H24.046a1.046,1.046,0,0,0,0,2.092H34.508a1.046,1.046,0,1,0,0-2.092H33.462V11.508H34.78a7.314,7.314,0,0,0,12.011,0h1.318a1.046,1.046,0,1,0,0-2.092Z" transform="translate(1.063)"/>
          <path id="Path_366" data-name="Path 366" d="M34.462,23.324c0-2.626-3.756-6.319-4.509-7.041a1.043,1.043,0,0,0-1.444,0C27.756,17,24,20.7,24,23.324a5.231,5.231,0,0,0,10.462,0Zm-8.37,0c0-1.1,1.653-3.254,3.139-4.8,1.486,1.548,3.139,3.7,3.139,4.8a3.139,3.139,0,1,1-6.277,0Z" transform="translate(1.109 0.739)"/>
        </g>
      </g>
    </g>
  </g>
</svg>
