<svg xmlns="http://www.w3.org/2000/svg" xmlns:xlink="http://www.w3.org/1999/xlink" width="64" height="64" viewBox="0 0 64 64">
  <defs>
    <clipPath id="clip-wear_mask">
      <rect width="64" height="64"/>
    </clipPath>
  </defs>
  <g id="wear_mask" clip-path="url(#clip-wear_mask)">
    <g id="noun_Face_3378102" transform="translate(7.001 0.003)">
      <path id="Path_377" data-name="Path 377" d="M64.008,30.573a1,1,0,0,0,.225-.91l-.765-3.1a1,1,0,1,0-1.94.5l.44,1.715a20.194,20.194,0,0,0-8.375,1,1,1,0,1,0,.745,1.855,16.1,16.1,0,0,1,5.685-.895l-.05.04a.71.71,0,0,0-.125.15,1.186,1.186,0,0,0-.095.175,1.13,1.13,0,0,0-.055.185.86.86,0,0,0,0,.195,1,1,0,0,0,.27.685.71.71,0,0,0,.15.125.74.74,0,0,0,.175.095.79.79,0,0,0,.185.055.96.96,0,0,0,.39,0,.83.83,0,0,0,.19-.055.815.815,0,0,0,.17-.095.71.71,0,0,0,.15-.125,1,1,0,0,0,.295-.7.86.86,0,0,0,0-.195,1.13,1.13,0,0,0-.055-.185.85.85,0,0,0-.15-.175.71.71,0,0,0-.125-.15h0c1.055.055,1.75.15,1.77.15a1,1,0,0,0,.895-.33Z" transform="translate(-26.469 -12.905)"/>
      <path id="Path_378" data-name="Path 378" d="M46.751,21.409a.96.96,0,0,0,.45-.1c9.1-4.565,14.73-3.155,14.82-3.135a1,1,0,0,0,.53-1.925c-.255-.07-6.355-1.685-16.245,3.275a1,1,0,0,0,.445,1.89Z" transform="translate(-22.882 -7.971)"/>
      <path id="Path_379" data-name="Path 379" d="M50.5,30.163c-.125-3.315-4.76-8.865-5.6-9.845a10.25,10.25,0,0,1-1.125-3.775c0-.55.7-1.43,1.215-2.075.195-.245.38-.5.53-.685,1.06-1.5.47-12.38.44-12.84a1,1,0,1,0-2,.11c.25,4.5.255,10.625-.1,11.61-.125.175-.275.36-.435.56a5.842,5.842,0,0,0-1.65,3.32,11.04,11.04,0,0,0,.87,3.645L20.664,25.313,1.03,24.683a1,1,0,0,0-.06,2l18.86.6c.28,4.22.64,9.82.7,11.18a74.211,74.211,0,0,1-7.69,5.4L1.275,40.537a1,1,0,0,0-.55,1.92L12.5,45.852l10.66,9.5C20.134,56.447,19,58.652,19,63a1,1,0,0,0,1,1h0a1,1,0,0,0,1-1c0-4.55,1.19-5.59,4.5-6.17a55.468,55.468,0,0,0,7.875.7,10.772,10.772,0,0,0,4.965-.85C42.679,54.092,50.778,37.538,50.5,30.163Zm-13.165,24.8c-1.72,1.03-8.03.46-11.8-.165l-10.88-9.715c7.89-5.09,7.89-5.78,7.89-6.345,0-.69-.535-8.82-.72-11.645L43.693,22c.42.5.94,1.165,1.5,1.9l-8.32,1.965a1.006,1.006,0,0,0,.225,2,.945.945,0,0,0,.235-.03l9.08-2.15c1.085,1.65,2.04,3.4,2.085,4.555C48.768,37.243,40.769,52.907,37.334,54.967Z" transform="translate(0 0)"/>
    </g>
  </g>
</svg>
