<svg version="1" xmlns="http://www.w3.org/2000/svg" width="933.333" height="933.333" viewBox="0 0 700.000000 700.000000"><path d="M73.7 1C55 4.2 37.7 13.3 24.9 26.6 14.1 38 8.1 48.2 3.3 63.7L.5 72.5v555l2.8 8.8c9.5 30.4 30 50.9 60.4 60.4l8.8 2.8h555l8.8-2.8c30.4-9.5 50.9-30 60.4-60.4l2.8-8.8v-555l-2.8-8.8c-4.8-15.5-10.8-25.7-21.6-37.1-10.6-11-22.6-18.3-38.8-23.3L627.5.5 353 .4C202 .3 76.3.6 73.7 1zm320.9 46.2c16.5 8.7 21.5 30.4 10.5 45.5-3.8 5.2-11.6 10.1-18.5 11.5l-5.6 1.2v16.3c0 16.1 0 16.3 2.3 16.7 1.2.3 6 1.3 10.6 2.2 25.2 4.9 52.3 16.2 75.3 31.6l9 6.1 11.5-11.5 11.5-11.5-2.6-3.9c-8.1-12.4-7.4-26.9 2.1-37.4 6.9-7.6 12.9-10.4 22.8-10.4 12.7 0 14.9 1.5 43.2 29.8 27.9 27.8 29.8 30.6 29.7 43.1-.2 24.4-26.3 38.5-47.1 25.3l-4.6-3-11.5 11.5-11.5 11.5 6.6 9.8c15.1 22.8 26.3 49.6 31.1 74.4.9 4.7 1.9 9.5 2.2 10.7.4 2.3.6 2.3 16.7 2.3h16.3l1.2-5.9c1.6-7.6 6.3-14.7 12.5-18.8 6.4-4.3 11.7-5.6 19.7-5.1 11.1.8 19.6 6.6 25.2 17.1 2.3 4.2 2.3 4.6 2.3 43.7s0 39.5-2.3 43.7c-5.5 10.4-14.2 16.3-25.1 17.1-8.1.5-13.5-.8-19.7-5.1-6.3-4.2-11-11.3-12.6-18.8l-1.2-5.9h-16.3c-16.1 0-16.3 0-16.7 2.2-.3 1.3-1.4 6.8-2.6 12.4-5 24.8-15.3 49.1-30.8 72.8l-6.5 9.8 11.5 11.5 11.4 11.4 5.8-3.5c20.6-12.4 46.1 1.9 46.1 25.9 0 12.5-2 15.3-29.8 43.2-27.9 27.9-30.6 29.8-43.2 29.7-9.3 0-16-2.9-22.3-9.9-9.9-10.8-10.9-25.3-2.6-37.9l2.6-3.9-11.5-11.5-11.6-11.5-7.3 5c-21.8 15-50.2 27.2-75.2 32.3-5.6 1.2-11.1 2.3-12.3 2.6-2.3.4-2.3.6-2.3 16.7v16.3l5.9 1.2c7.5 1.6 14.6 6.3 18.8 12.6 4.3 6.2 5.6 11.6 5.1 19.7-.8 10.9-6.7 19.6-17.1 25.1-4.2 2.3-4.6 2.3-43.7 2.3s-39.5 0-43.7-2.3c-10.4-5.5-16.3-14.2-17.1-25.1-.5-8.1.8-13.5 5.1-19.7 4.2-6.3 11.3-11 18.8-12.6l5.9-1.2v-16.3c0-16.1 0-16.3-2.2-16.7-1.3-.3-6.9-1.4-12.6-2.6-22.9-4.7-51.2-16.6-72.1-30.4l-10.3-6.9-11.5 11.5-11.4 11.4 3.5 5.8c9.5 15.7 3.8 34.7-12.9 43.4-4.2 2.2-6.3 2.6-13 2.6-12.7 0-14.9-1.5-43.2-29.8-27.8-27.7-29.8-30.6-29.8-43.1.1-24.3 26.4-38.4 47.2-25.3l4.6 3 11.5-11.5 11.5-11.6-5-7.3c-15.1-21.9-27.2-50.1-32.3-75.2-1.2-5.6-2.3-11.1-2.6-12.4-.4-2.2-.6-2.2-16.7-2.2h-16.3l-1.2 5.9c-1.6 7.5-6.3 14.6-12.6 18.8-6.2 4.3-11.6 5.6-19.6 5.1-10.7-.8-19.2-6.3-24.6-16l-2.9-5.3v-79l2.7-5c5.2-9.8 13.9-15.5 24.8-16.3 8-.5 13.4.8 19.6 5.1 6.3 4.2 11 11.3 12.6 18.8l1.2 5.9h16.3c18.5 0 16.2 1.4 18.3-10.5 4.6-25.2 16-52.9 31.7-76.9l6.5-9.9-11.5-11.5-11.4-11.4-3.9 2.6c-12.6 8.3-27.1 7.3-37.9-2.6-7.2-6.5-10-13-9.9-22.8.1-12.3 1.3-14 29.3-42.2 28.3-28.4 31-30.3 43.6-30.2 9.3 0 16 2.9 22.3 9.9 9.9 10.8 10.9 25.3 2.6 37.9l-2.6 3.9 11.5 11.5 11.5 11.5 9-6.1c23-15.4 50.1-26.7 75.3-31.6 4.6-.9 9.4-1.9 10.7-2.2 2.2-.4 2.2-.6 2.2-16.7v-16.3l-5.7-1.2c-10.9-2.2-20.6-11.2-23.4-21.7-.6-2.2-.9-6.9-.7-10.5 1-12.9 9.2-23.1 21.8-27.1 1.4-.4 19.6-.7 40.5-.6l38 .2 5.1 2.7z"/><path d="M344.8 198.6c-8.9 4.8-5 18.4 5.2 18.4 10.7 0 13.9-14 4.3-18.9-2.9-1.5-6.2-1.3-9.5.5zM273 217.6c-23.6 3.9-39.3 14.6-48.9 33.5-6.2 12.2-8 23.9-5.8 37 3.4 19.9 15.3 36.2 32.8 44.8 10.9 5.4 20.9 7.5 31.3 6.7 26.3-2.1 47.6-19.6 55.2-45.1 2.4-8.1 2.4-23.9 0-32-6.2-20.9-23.3-37.8-43.1-42.8-6.6-1.7-17.6-2.8-21.5-2.1zM408.9 239.9c-10.5 3.4-19.4 11.3-24.7 22.1-2.4 5-2.7 6.5-2.7 16.5 0 10.4.2 11.4 3.2 17.6 4 8 12 15.9 20 19.7 5.2 2.4 6.9 2.7 16.8 2.7 9.8 0 11.6-.3 16.7-2.7 28.2-13.2 32.2-51.1 7.3-70-9.6-7.3-24.6-9.7-36.6-5.9zM200.5 342.4c-1.3 1.3-2.7 3.6-3.1 5-2.4 9.9 9.5 16.8 16.7 9.7 6.4-6.5 2-17.1-7.1-17.1-3 0-4.7.6-6.5 2.4zM342.9 342.9c-2.3 2.3-2.9 3.8-2.9 7.1s.6 4.8 2.9 7.1c6.5 6.4 17.1 2 17.1-7.1 0-3.3-.6-4.8-2.9-7.1s-3.8-2.9-7.1-2.9-4.8.6-7.1 2.9zM485.9 342.9c-2.3 2.3-2.9 3.8-2.9 7.1 0 11.7 16.7 13.9 19.6 2.6 2.5-10-9.4-16.9-16.7-9.7zM409.5 361.4c-13.9 3.2-23.8 8.8-32.8 18.6-22.5 24.3-21.7 61.1 1.8 84.5 9.5 9.6 20.2 15 33.7 17.2 8.6 1.4 10.4 1.4 18.7 0 48.4-8.1 68.5-66 35.3-101.8-14-15.1-37.7-22.9-56.7-18.5zM265.3 382.9c-31 11.5-37 51.4-10.8 71.3 2.8 2.1 7.9 4.7 11.4 5.8 19.9 6.2 40.4-2.7 49.7-21.5 2.7-5.5 2.9-6.9 2.9-17 0-9.9-.3-11.6-2.7-16.8-3.7-7.9-11.7-16-19.6-19.9-5.8-2.9-7.7-3.3-16.1-3.5-7.6-.3-10.7.1-14.8 1.6zM342.9 485.9c-7.8 7.9.8 20.4 11.1 16.1 10-4.1 6.9-19-4-19-3.3 0-4.8.6-7.1 2.9z"/></svg>